<?xml version="1.0" encoding="UTF-8" standalone="no"?>
<!DOCTYPE svg PUBLIC "-//W3C//DTD SVG 1.1//EN"
 "http://www.w3.org/Graphics/SVG/1.1/DTD/svg11.dtd">
<!-- Generated by graphviz version 2.50.0 (0)
 -->
<!-- Pages: 1 -->
<svg width="244pt" height="172pt"
 viewBox="0.00 0.00 244.00 172.00" xmlns="http://www.w3.org/2000/svg" xmlns:xlink="http://www.w3.org/1999/xlink">
<g id="graph0" class="graph" transform="scale(1 1) rotate(0) translate(4 168)">
<polygon fill="white" stroke="transparent" points="-4,4 -4,-168 240,-168 240,4 -4,4"/>
<g id="clust1" class="cluster">
<title>cluster_data</title>
<polygon fill="none" stroke="black" points="28,-8 28,-83 98,-83 98,-8 28,-8"/>
<text text-anchor="middle" x="78.5" y="-15.8" font-family="Times,serif" font-size="14.00">data</text>
</g>
<!-- t_0 -->
<g id="node1" class="node">
<title>t_0</title>
<ellipse fill="white" stroke="black" cx="27" cy="-137.5" rx="27" ry="18"/>
<text text-anchor="middle" x="27" y="-133.8" font-family="Times,serif" font-size="14.00">t_0</text>
</g>
<!-- obs -->
<g id="node3" class="node">
<title>obs</title>
<ellipse fill="white" stroke="black" cx="63" cy="-57" rx="27" ry="18"/>
<text text-anchor="middle" x="63" y="-53.3" font-family="Times,serif" font-size="14.00">obs</text>
</g>
<!-- t_0&#45;&gt;obs -->
<g id="edge2" class="edge">
<title>t_0&#45;&gt;obs</title>
<path fill="none" stroke="black" d="M34.63,-119.85C39.44,-109.37 45.74,-95.64 51.18,-83.77"/>
<polygon fill="black" stroke="black" points="54.51,-84.9 55.5,-74.35 48.15,-81.99 54.51,-84.9"/>
</g>
<!-- t_1 -->
<g id="node2" class="node">
<title>t_1</title>
<ellipse fill="white" stroke="black" cx="99" cy="-137.5" rx="27" ry="18"/>
<text text-anchor="middle" x="99" y="-133.8" font-family="Times,serif" font-size="14.00">t_1</text>
</g>
<!-- t_1&#45;&gt;obs -->
<g id="edge1" class="edge">
<title>t_1&#45;&gt;obs</title>
<path fill="none" stroke="black" d="M91.37,-119.85C86.56,-109.37 80.26,-95.64 74.82,-83.77"/>
<polygon fill="black" stroke="black" points="77.85,-81.99 70.5,-74.35 71.49,-84.9 77.85,-81.99"/>
</g>
<!-- distribution_description_node -->
<g id="node4" class="node">
<title>distribution_description_node</title>
<text text-anchor="start" x="152" y="-148.8" font-family="Times,serif" font-size="14.00">t_0 ~ Normal</text>
<text text-anchor="start" x="152" y="-133.8" font-family="Times,serif" font-size="14.00">t_1 ~ Normal</text>
<text text-anchor="start" x="152" y="-118.8" font-family="Times,serif" font-size="14.00">obs ~ Normal</text>
</g>
</g>
</svg>
